<svg width="512" height="109" viewBox="0 0 512 109" fill="none" xmlns="http://www.w3.org/2000/svg">
<path d="M20.7 18.2391C18.3 18.2391 16.2 17.3391 14.4 15.5391C12.6 13.7391 11.7 11.6391 11.7 9.23909C11.7 6.93909 12.6 4.93909 14.4 3.23909C16.2 1.43909 18.3 0.539087 20.7 0.539087C23 0.539087 25 1.43909 26.7 3.23909C28.5 4.93909 29.4 6.93909 29.4 9.23909C29.4 11.6391 28.5 13.7391 26.7 15.5391C25 17.3391 23 18.2391 20.7 18.2391ZM12 31.8891H28.5V107.039H12V31.8891ZM60.6551 36.0891V107.039H44.1551V2.03909H60.6551L101.305 72.5391V2.03909H117.955V107.039H101.305L60.6551 36.0891ZM144.264 77.7891C144.764 82.1891 146.564 85.7391 149.664 88.4391C152.764 91.1391 156.814 92.4891 161.814 92.4891C166.014 92.4891 169.414 91.7891 172.014 90.3891C174.714 88.9891 176.664 87.2891 177.864 85.2891C179.064 83.2891 179.664 81.3391 179.664 79.4391C179.664 75.0391 178.564 71.3891 176.364 68.4891C174.264 65.4891 171.614 63.1391 168.414 61.4391C165.314 59.6391 161.064 57.5891 155.664 55.2891C149.764 52.7891 145.064 50.5391 141.564 48.5391C138.164 46.4391 135.214 43.6391 132.714 40.1391C130.314 36.5391 129.114 31.9891 129.114 26.4891C129.114 22.0891 130.364 17.9391 132.864 14.0391C135.364 10.0391 139.164 6.78909 144.264 4.28908C149.364 1.78909 155.614 0.539087 163.014 0.539087C167.914 0.539087 171.964 0.889089 175.164 1.58909C178.364 2.28909 181.614 3.43909 184.914 5.03909L179.664 20.6391C176.064 19.4391 173.114 18.5891 170.814 18.0891C168.614 17.5891 166.064 17.3391 163.164 17.3391C157.464 17.3391 153.264 18.3391 150.564 20.3391C147.864 22.3391 146.664 24.8891 146.964 27.9891C147.264 30.4891 148.764 32.6391 151.464 34.4391C154.264 36.2391 158.564 38.4391 164.364 41.0391C171.164 44.0391 176.814 46.8891 181.314 49.5891C185.814 52.2891 189.664 55.9891 192.864 60.6891C196.164 65.3891 197.814 71.1391 197.814 77.9391C197.814 86.8391 194.864 94.1891 188.964 99.9891C183.064 105.789 174.064 108.689 161.964 108.689C154.564 108.689 148.214 107.339 142.914 104.639C137.714 101.839 133.714 98.2891 130.914 93.9891C128.214 89.5891 126.764 85.0391 126.564 80.3391L144.264 77.7891ZM207.796 2.03909H241.996C252.496 2.03909 260.246 5.43909 265.246 12.2391C270.346 18.9391 272.896 27.3891 272.896 37.5891C272.896 64.3891 263.046 77.7891 243.346 77.7891H224.296V107.039H207.796V2.03909ZM238.396 62.0391C244.096 62.0391 248.246 60.7891 250.846 58.2891C253.546 55.7891 255.146 52.9891 255.646 49.8891C256.146 46.6891 256.396 42.6891 256.396 37.8891C256.396 32.5891 255.646 28.5391 254.146 25.7391C252.746 22.8391 250.696 20.9391 247.996 20.0391C245.396 19.0391 241.996 18.5391 237.796 18.5391H224.296V62.0391H238.396ZM290.413 18.2391C288.013 18.2391 285.913 17.3391 284.113 15.5391C282.313 13.7391 281.413 11.6391 281.413 9.23909C281.413 6.93909 282.313 4.93909 284.113 3.23909C285.913 1.43909 288.013 0.539087 290.413 0.539087C292.713 0.539087 294.713 1.43909 296.413 3.23909C298.213 4.93909 299.113 6.93909 299.113 9.23909C299.113 11.6391 298.213 13.7391 296.413 15.5391C294.713 17.3391 292.713 18.2391 290.413 18.2391ZM281.713 31.8891H298.213V107.039H281.713V31.8891ZM352.268 77.7891H330.368V107.039H313.868V2.03909H349.418C356.018 2.03909 361.518 3.68909 365.918 6.98908C370.318 10.1891 373.568 14.4891 375.668 19.8891C377.868 25.2891 378.968 31.2391 378.968 37.7391C378.968 42.6391 378.768 46.8891 378.368 50.4891C377.968 54.0891 376.918 57.8391 375.218 61.7391C373.618 65.6391 371.018 69.1391 367.418 72.2391L379.118 107.039H362.318L352.268 77.7891ZM345.518 62.0391C350.418 62.0391 354.018 60.7891 356.318 58.2891C358.718 55.6891 360.168 52.7391 360.668 49.4391C361.268 46.1391 361.568 42.2391 361.568 37.7391C361.568 32.4391 360.818 28.4391 359.318 25.7391C357.818 22.9391 355.718 21.0891 353.018 20.1891C350.318 19.1891 346.818 18.6891 342.518 18.6891H330.368V62.0391H345.518ZM389.536 2.03909H439.636V18.5391H406.036V45.0891H426.586L421.936 60.8391H406.036V92.0391H439.336V107.039H389.536V2.03909ZM450.263 55.1391C450.263 44.6391 454.513 37.4391 463.013 33.5391C467.113 31.5391 471.913 30.5391 477.413 30.5391C482.113 30.5391 486.063 31.1391 489.263 32.3391V2.03909H505.613V107.039L497.363 107.789C490.863 108.489 485.763 108.839 482.063 108.839C478.363 108.839 474.863 108.489 471.563 107.789C468.363 107.089 465.163 105.939 461.963 104.339C458.363 102.539 455.513 99.8891 453.413 96.3891C451.313 92.8891 450.263 88.5891 450.263 83.4891V55.1391ZM489.263 49.7391C485.663 48.0391 482.313 47.1891 479.213 47.1891C475.613 47.1891 472.613 48.3391 470.213 50.6391C467.813 52.9391 466.613 56.4391 466.613 61.1391V84.5391C466.613 87.1391 468.013 89.2891 470.813 90.9891C473.613 92.6891 477.163 93.5391 481.463 93.5391C484.163 93.5391 486.763 93.1891 489.263 92.4891V49.7391Z" fill="url(#paint0_linear_2535_11120)"/>
<circle cx="20.4823" cy="9.16349" r="9.16349" fill="#00ADB5"/>
<defs>
<linearGradient id="paint0_linear_2535_11120" x1="269" y1="111.5" x2="255.622" y2="-13.5878" gradientUnits="userSpaceOnUse">
<stop offset="0.4999" stop-color="#00ADB5"/>
<stop offset="0.5" stop-color="white"/>
</linearGradient>
</defs>
</svg>
